<svg width="1100" height="40" viewBox="0 0 1100 40" fill="none" xmlns="http://www.w3.org/2000/svg">
<path d="M14.7669 33.7799H37.668L40.6711 39.0304H52.4349L31.7215 0H20.7134L0 39.0403H11.8235L14.7669 33.7898V33.7799ZM26.2125 11.8831L33.223 24.7109H19.3312L26.2125 11.8831Z" fill="black"/>
<path d="M66.814 39.0403V20.3952L79.075 39.0403H84.9618L97.2228 20.3952V39.0403H108.231V0H97.72L82.0184 24.0845L66.3168 0H55.8059V39.0403H66.814Z" fill="black"/>
<path d="M153.775 30.031H124.241V24.1441H139.764V15.1448H124.241V9.0093H153.775V0H113.233V39.0403H153.775V30.031Z" fill="black"/>
<path d="M196.286 24.9894C197.519 24.7209 198.622 24.2833 199.597 23.6768C200.571 23.0702 201.357 22.2946 201.944 21.33C202.53 20.3754 202.819 19.2218 202.819 17.8893V5.50901C202.819 4.92231 202.64 4.30576 202.282 3.6594C201.924 3.01304 201.476 2.41642 200.939 1.87944C200.392 1.34246 199.806 0.885028 199.159 0.536987C198.513 0.179001 197.896 0 197.31 0H158.777V39.0403H169.854V25.407H176.736L192.059 39.0403H206.826L192.497 25.407C193.79 25.407 195.052 25.2678 196.286 24.9993V24.9894ZM191.314 15.5127C191.314 16.0099 190.975 16.2585 190.309 16.2585H169.854V8.99935H190.309C190.558 8.99935 190.786 9.0789 190.995 9.24795C191.204 9.417 191.304 9.58604 191.304 9.74515V15.5028L191.314 15.5127Z" fill="black"/>
<path d="M218.898 0H207.821V39.0403H218.898V0Z" fill="black"/>
<path d="M266.659 1.77999C265.844 1.17341 264.939 0.725918 263.935 0.43754C262.93 0.149163 261.936 0 260.932 0H232.402C231.318 0 230.274 0.13922 229.27 0.407709C228.266 0.676199 227.361 1.09386 226.545 1.66067C225.73 2.22748 225.083 2.94343 224.606 3.81851C224.129 4.69358 223.89 5.75759 223.89 7.01054V32.0397C223.89 33.2926 224.129 34.3567 224.606 35.2317C225.083 36.1068 225.73 36.8228 226.545 37.3896C227.361 37.9564 228.266 38.374 229.27 38.6425C230.274 38.911 231.308 39.0503 232.402 39.0503H260.932C261.936 39.0503 262.93 38.9011 263.935 38.6127C264.939 38.3244 265.844 37.8768 266.659 37.2703C267.475 36.6637 268.141 35.9278 268.658 35.0527C269.175 34.1777 269.444 33.1733 269.444 32.0496V25.5462H258.366V30.0509H234.908V9.0093H258.366V13.5736H269.444V7.00061C269.444 5.87694 269.185 4.87257 268.658 3.99749C268.141 3.12242 267.465 2.38658 266.659 1.77999Z" fill="black"/>
<path d="M291.778 0L271.075 39.0403H282.898L285.901 33.7202H308.673L311.736 39.0403H323.5L302.796 0H291.788H291.778ZM290.406 24.7109L297.287 11.8831L304.298 24.7109H290.406Z" fill="black"/>
<path d="M361.416 0V23.8955L338.893 0H326.881V39.0403H337.948V15.3238L360.661 39.0403H372.424V0H361.416Z" fill="black"/>
<path d="M404.732 37.3797C405.548 37.9465 406.453 38.3641 407.457 38.6326C408.461 38.9011 409.496 39.0403 410.589 39.0403H439.119C440.123 39.0403 441.118 38.8912 442.122 38.6028C443.126 38.3144 444.031 37.8669 444.847 37.2603C445.662 36.6537 446.328 35.9179 446.845 35.0428C447.363 34.1677 447.631 33.1633 447.631 32.0397V25.5363H436.553V30.041H413.095V9.0093H436.553V13.5736H447.631V7.00061C447.631 5.87694 447.372 4.87257 446.845 3.99749C446.328 3.12242 445.652 2.38658 444.847 1.77999C444.031 1.17341 443.126 0.725917 442.122 0.43754C441.118 0.149163 440.123 0 439.119 0H410.589C409.506 0 408.461 0.13922 407.457 0.407709C406.453 0.676198 405.548 1.09386 404.732 1.66067C403.917 2.22748 403.271 2.94343 402.793 3.81851C402.316 4.69358 402.077 5.75759 402.077 7.01054V32.0397C402.077 33.2926 402.316 34.3567 402.793 35.2317C403.271 36.1068 403.917 36.8228 404.732 37.3896V37.3797Z" fill="black"/>
<path d="M455.278 37.3797C456.094 37.9465 456.998 38.3641 458.003 38.6326C459.007 38.9011 460.041 39.0403 461.135 39.0403H489.665C490.669 39.0403 491.663 38.8912 492.668 38.6028C493.672 38.3144 494.577 37.8669 495.392 37.2603C496.208 36.6537 496.874 35.9179 497.391 35.0428C497.908 34.1677 498.177 33.1633 498.177 32.0397V7.01053C498.177 5.88686 497.918 4.88252 497.391 4.00744C496.874 3.13237 496.198 2.3965 495.392 1.78991C494.577 1.18332 493.672 0.735866 492.668 0.447489C491.663 0.159112 490.669 0.00994873 489.665 0.00994873H461.135C460.051 0.00994873 459.007 0.149169 458.003 0.417658C456.998 0.686147 456.094 1.10378 455.278 1.67059C454.463 2.2374 453.816 2.95338 453.339 3.82846C452.862 4.70353 452.623 5.76754 452.623 7.02049V32.0496C452.623 33.3026 452.862 34.3666 453.339 35.2417C453.816 36.1168 454.463 36.8327 455.278 37.3995V37.3797ZM463.631 9.00929H487.089V30.031H463.631V9.00929Z" fill="black"/>
<path d="M514.186 39.0403V20.3952L526.447 39.0403H532.324L544.585 20.3952V39.0403H555.603V0H545.093L529.381 24.0845L513.679 0H503.168V39.0403H514.186Z" fill="black"/>
<path d="M571.614 39.0403V20.3952L583.874 39.0403H589.761L602.022 20.3952V39.0403H613.03V0H602.52L586.818 24.0845L571.116 0H560.605V39.0403H571.614Z" fill="black"/>
<path d="M620.697 37.3797C621.513 37.9465 622.417 38.3641 623.422 38.6326C624.426 38.9011 625.46 39.0403 626.554 39.0403H655.084C656.088 39.0403 657.082 38.8912 658.087 38.6028C659.091 38.3144 659.996 37.8669 660.811 37.2603C661.627 36.6537 662.293 35.9179 662.81 35.0428C663.327 34.1677 663.596 33.1633 663.596 32.0397V0H652.518V30.031H629.06V0H618.052V32.0298C618.052 33.2827 618.291 34.3467 618.768 35.2218C619.245 36.0969 619.892 36.8129 620.707 37.3797H620.697Z" fill="black"/>
<path d="M703.113 0V23.8955L680.59 0H668.588V39.0403H679.655V15.3238L702.368 39.0403H714.131V0H703.113Z" fill="black"/>
<path d="M730.211 0H719.133V39.0403H730.211V0Z" fill="black"/>
<path d="M738.932 0.536987C738.286 0.894972 737.679 1.3524 737.122 1.90927C736.555 2.47608 736.098 3.0727 735.75 3.71906C735.392 4.36543 735.223 4.98197 735.223 5.56867V16.706C735.223 17.9987 735.402 19.1025 735.75 20.0174C736.108 20.9322 736.585 21.678 737.192 22.2349C737.798 22.8017 738.494 23.2293 739.29 23.5177C740.085 23.8061 740.891 23.9751 741.726 24.0149H768.625C768.873 24.0149 769.102 24.0944 769.311 24.2635C769.52 24.4325 769.619 24.6016 769.619 24.7607V29.2653C769.619 29.7625 769.281 30.0111 768.615 30.0111H735.203V39.0204H775.178C775.804 39.0204 776.441 38.8415 777.087 38.4934C777.734 38.1354 778.32 37.6879 778.837 37.1509C779.354 36.6139 779.792 36.0173 780.15 35.371C780.508 34.7246 780.677 34.1081 780.677 33.5214V22.3244C780.677 20.9521 780.478 19.7986 780.08 18.8837C779.683 17.9689 779.156 17.2131 778.489 16.6264C777.823 16.0397 777.057 15.6221 776.202 15.3735C775.347 15.1249 774.482 14.9956 773.607 14.9956H747.205C746.539 14.9956 746.201 14.747 746.201 14.2498V9.74515C746.201 9.5761 746.3 9.417 746.509 9.24795C746.718 9.0789 746.947 8.99935 747.195 8.99935H780.667V0H740.752C740.165 0 739.548 0.179001 738.902 0.536987H738.932Z" fill="black"/>
<path d="M811.285 9.0093H826.231V0H785.699V9.0093H800.277V39.0403H811.285V9.0093Z" fill="black"/>
<path d="M900.771 21.33C901.169 20.3754 901.368 19.2218 901.368 17.8893V5.50901C901.368 4.92231 901.189 4.30576 900.841 3.6594C900.483 3.01304 900.045 2.41642 899.528 1.87944C899.011 1.34246 898.424 0.885028 897.778 0.536987C897.131 0.179001 896.495 0 895.869 0H855.894V39.0403H866.971V25.3374H894.307C895.182 25.3374 896.048 25.1982 896.903 24.9297C897.758 24.6612 898.514 24.2337 899.19 23.647C899.856 23.0603 900.393 22.2946 900.781 21.33H900.771ZM890.35 15.5127C890.35 16.0099 890.012 16.2585 889.345 16.2585H866.951V8.99935H889.345C889.594 8.99935 889.823 9.0789 890.031 9.24795C890.24 9.417 890.34 9.58604 890.34 9.74515V15.5028L890.35 15.5127Z" fill="black"/>
<path d="M939.533 39.0403H951.297L930.583 0H919.575L898.872 39.0403H910.695L913.698 33.7202H936.47L939.533 39.0403ZM918.203 24.7109L925.084 11.8831L932.095 24.7109H918.203Z" fill="black"/>
<path d="M965.745 29.146V25.3971H972.627L987.95 39.0304H1002.72L988.388 25.3971C989.681 25.3971 990.944 25.2579 992.177 24.9894C993.41 24.7209 994.514 24.2833 995.488 23.6768C996.463 23.0702 997.248 22.2946 997.835 21.33C998.422 20.3754 998.71 19.2218 998.71 17.8893V5.50901C998.71 4.92231 998.531 4.30576 998.173 3.6594C997.815 3.01304 997.367 2.41642 996.83 1.87944C996.284 1.34246 995.697 0.885028 995.051 0.536987C994.404 0.179001 993.788 0 993.201 0H954.668V39.0403H965.745V29.1559V29.146ZM965.745 9.0093H986.2C986.449 9.0093 986.678 9.08885 986.886 9.2579C987.095 9.42695 987.195 9.596 987.195 9.7551V15.5127C987.195 16.0099 986.857 16.2585 986.19 16.2585H965.735V8.99935L965.745 9.0093Z" fill="black"/>
<path d="M1044.25 0H1003.72V9.0093H1018.29V39.0403H1029.31V9.0093H1044.25V0Z" fill="black"/>
<path d="M1068.22 39.0403H1079.29V22.0261L1100 0H1085.86L1073.85 12.5096L1061.72 0H1047.57L1068.22 22.0261V39.0403Z" fill="black"/>
</svg>
