<svg width="490" height="412" viewBox="0 0 490 412" fill="none" xmlns="http://www.w3.org/2000/svg">
<path d="M212.247 410.772H232.516H327.284V384.706H232.516V318.082H327.284V292.016H232.516H212.247H211.344L188.113 308.788V376.363L210.315 410.772H212.247Z" fill="white"/>
<path d="M123.23 291.629H86.5775L9.16406 410.386H57.2087L67.1925 392.428H142.615L152.599 410.386H200.643L123.23 291.629ZM79.5849 368.285L103.874 324.591L128.164 368.285H79.5752H79.5849Z" fill="white"/>
<path d="M442.071 292.016H335.59V410.772H379.08V382.22H463.272L485.561 365.389V312.022L463.447 292.025H442.071V292.016ZM441.158 356.94H379.07V317.276H441.158V356.94Z" fill="white"/>
<path d="M139.856 248.657L159.548 244.565L169.621 260.136C179.496 256.786 188.831 252.268 197.464 246.741L161.493 210.724C152.095 214.641 141.789 216.812 130.974 216.812C87.0043 216.812 51.3557 181.039 51.3557 136.91C51.3557 116.765 58.787 98.3652 71.0421 84.3075L34.736 50.2461C27.4011 58.0798 21.0354 66.8375 15.8262 76.3264C17.9688 78.5428 29.0732 90.1063 29.0732 90.1063L21.778 108.852L3.38404 108.818C1.17336 118.273 0 128.124 0 138.254C0 139.801 0.0396799 141.337 0.090697 142.868C2.22768 143.446 17.6457 147.669 17.6457 147.669L20.9504 167.508L5.76477 176.498C9.16014 187.45 13.9839 197.772 20.0095 207.255C22.5036 206.53 36.8616 202.392 36.8616 202.392L50.001 217.617L41.7138 233.171C50.3014 241.05 59.9604 247.773 70.4469 253.096C71.0704 252.421 82.702 240.075 82.702 240.075L101.77 246.48L102.575 264.319C110.919 266.025 119.558 266.921 128.406 266.921C130.855 266.921 133.275 266.83 135.69 266.694C136.183 264.517 139.845 248.668 139.845 248.668L139.856 248.657Z" fill="#C11616"/>
<path d="M124.269 151.086L100.399 175.057L64.1387 139.766L133.951 69.5229L182.325 91.2612L154.363 120.85C154.363 120.85 184.36 149.731 201.206 166.447L203.338 163.981C206.297 160.557 211.432 151.613 214.142 145.145C232.088 102.377 211.245 52.0075 165.949 28.6764C142.754 16.7274 117.07 13.2924 89.8165 18.4903C80.9965 20.1738 81.45 18.9154 91.517 13.7175C109.1 4.64805 123.702 1.04861 143.179 0.986261C158.16 0.935245 164.481 1.89887 178.533 6.37124C197.63 12.4478 212.322 21.6476 228.29 37.5304C248.35 57.4832 259.931 79.1592 264.154 104.633C266.546 142.396 260.656 167.28 239.593 203.343L264.347 228.057L232.932 259.879L124.263 151.08L124.269 151.086Z" fill="#C11616"/>
<path d="M195.398 2.04688C214.926 10.7564 232.069 23.8399 245.432 40.2324H490V2.04688H195.398ZM266.996 77.9473C271.53 90.2303 274.186 103.097 274.877 116.135H490V77.9473H266.996ZM271.488 153.254C268.267 166.709 262.916 179.593 255.627 191.441H490V153.254H271.488Z" fill="#C11616"/>
<path d="M144.363 229.156V232.625L171.545 229.156H144.363ZM275.369 229.156L236.604 267.342H490V229.156H275.369Z" fill="#C11616"/>
</svg>
